<?xml version="1.0" encoding="UTF-8"?>
<svg version="1.1" xmlns="http://www.w3.org/2000/svg" width="512" height="512">
<path d="M0 0 C0.75210251 -0.00974854 1.50420502 -0.01949707 2.27909851 -0.02954102 C18.91517265 -0.20075019 34.78654726 0.04531933 50.99609375 4.23828125 C51.73053711 4.41488281 52.46498047 4.59148438 53.22167969 4.7734375 C82.71417203 11.93116598 108.9557082 28.65839863 129.99609375 50.23828125 C130.60324219 50.78871094 131.21039063 51.33914062 131.8359375 51.90625 C159.23054463 77.51748307 175.86381489 118.62893082 177.11621094 155.80371094 C177.239657 163.61723984 177.16946174 171.42605303 176.99609375 179.23828125 C178.05799927 179.21471558 178.05799927 179.21471558 179.14135742 179.19067383 C209.06253134 178.61791571 237.15371216 182.14603092 263.99609375 196.23828125 C265.24531726 196.86223413 266.49533738 197.48459431 267.74609375 198.10546875 C284.06618492 206.34283103 297.11742376 217.35961126 309.99609375 230.23828125 C310.91261719 231.08519531 310.91261719 231.08519531 311.84765625 231.94921875 C337.54061209 256.05758701 354.55685717 296.12694917 356.1730957 331.06445312 C356.19925445 332.4452158 356.21940905 333.8261019 356.234375 335.20703125 C356.24920174 336.33060783 356.24920174 336.33060783 356.264328 337.47688293 C356.59020173 368.6246618 352.17131293 396.07305055 337.74609375 424.11328125 C337.23884766 425.10070312 336.73160156 426.088125 336.20898438 427.10546875 C332.03893604 434.86164849 332.03893604 434.86164849 327.99609375 436.23828125 C324.24609375 435.86328125 324.24609375 435.86328125 320.99609375 435.23828125 C320.74859375 435.96015625 320.50109375 436.68203125 320.24609375 437.42578125 C318.99609375 440.23828125 318.99609375 440.23828125 316.80859375 442.48828125 C314.72728671 445.64612641 314.89660196 446.13225058 315.49609375 449.67578125 C315.67140625 450.39636719 315.84671875 451.11695313 316.02734375 451.859375 C315.94852496 457.85945524 309.9041382 462.72230093 305.89746094 466.70263672 C278.40339492 493.23555675 238.54674528 512.06146318 199.9921875 512.4765625 C199.24003967 512.48631104 198.48789185 512.49605957 197.71295166 512.50610352 C181.11580793 512.67690435 165.15000635 512.54365013 148.99609375 508.23828125 C148.27808594 508.05104492 147.56007813 507.86380859 146.8203125 507.67089844 C142.12848201 506.41089387 137.55400632 504.91655144 132.99609375 503.23828125 C131.97056396 502.86147217 131.97056396 502.86147217 130.92431641 502.47705078 C106.7102882 493.40165302 87.18273424 479.42492174 68.99609375 461.23828125 C68.38507813 460.67367188 67.7740625 460.1090625 67.14453125 459.52734375 C56.46296297 449.5045506 48.75431172 436.89830874 41.95556641 424.04296875 C41.10900361 422.45065522 40.23250232 420.87433646 39.3515625 419.30078125 C27.3739402 397.05211081 22.76072871 371.18802242 22.93359375 346.17578125 C22.93810547 344.92861328 22.94261719 343.68144531 22.94726562 342.39648438 C22.95896212 339.34369904 22.97535289 336.29101627 22.99609375 333.23828125 C22.28815674 333.2539917 21.58021973 333.26970215 20.85083008 333.28588867 C-23.75542364 334.13975202 -67.7821437 323.02096456 -100.953125 291.37890625 C-102.65423117 289.68133668 -104.33415777 287.9666174 -106.00390625 286.23828125 C-106.82890625 285.41328125 -107.65390625 284.58828125 -108.50390625 283.73828125 C-109.32890625 282.91328125 -110.15390625 282.08828125 -111.00390625 281.23828125 C-111.73480469 280.57699219 -111.73480469 280.57699219 -112.48046875 279.90234375 C-130.7409879 262.85342303 -143.49341158 237.27045632 -150.37890625 213.61328125 C-150.7186145 212.4538501 -150.7186145 212.4538501 -151.06518555 211.27099609 C-155.04552665 196.66294979 -156.56234344 182.08550378 -156.44140625 166.98828125 C-156.4386972 166.18700806 -156.43598816 165.38573486 -156.43319702 164.56018066 C-156.36623553 151.4396386 -155.31171521 138.98027666 -152.00390625 126.23828125 C-151.8219873 125.49320312 -151.64006836 124.748125 -151.45263672 123.98046875 C-146.1267375 102.42937699 -135.68433305 81.68231892 -122.00390625 64.23828125 C-121.24207031 63.26375 -121.24207031 63.26375 -120.46484375 62.26953125 C-117.35469676 58.41367651 -117.35469676 58.41367651 -115.00390625 57.23828125 C-113.62772138 57.37247355 -112.25283704 57.52019675 -110.87890625 57.67578125 C-106.55687375 57.73191154 -104.55179254 56.5805363 -101.37890625 53.67578125 C-98.26043578 50.22152326 -98.26043578 50.22152326 -98.19140625 45.55078125 C-98.45953125 44.45765625 -98.72765625 43.36453125 -99.00390625 42.23828125 C-91.71444518 26.36401934 -62.97458498 15.30576948 -47.59375 9.546875 C-32.44891055 4.14013744 -16.12663816 0.17362939 0 0 Z " fill="#DC568F" transform="translate(156.00390625,-0.23828125)"/>
<path d="M0 0 C2.35428629 -0.00967548 4.707686 -0.04077619 7.06176758 -0.07226562 C20.53471642 -0.16744802 32.90741107 2.10234181 45.8137207 6.05273438 C47.08735474 6.44066162 47.08735474 6.44066162 48.38671875 6.83642578 C55.46814681 9.05638927 62.08903795 11.83765821 68.6887207 15.24023438 C69.9111406 15.84227701 71.13380789 16.44381754 72.35668945 17.04492188 C85.34979597 23.56308598 96.13872764 32.26051121 106.6887207 42.24023438 C107.57172852 43.05878906 108.45473633 43.87734375 109.36450195 44.72070312 C136.74127814 70.93580564 152.13420714 108.85873852 152.97143555 146.48608398 C153.24658424 173.66040009 147.61613898 201.10792898 133.44604492 224.5456543 C131.39237942 228.1008247 130.67440583 229.80542023 130.8137207 234.03710938 C131.5400947 237.35945126 131.5400947 237.35945126 133.6887207 240.24023438 C131.35494941 244.25588554 128.97990948 247.94368536 125.6887207 251.24023438 C123.3527832 251.54882812 123.3527832 251.54882812 120.9387207 251.17773438 C118.35343768 250.76144806 118.35343768 250.76144806 115.6887207 251.24023438 C112.40780575 253.85585269 109.71664037 256.79221694 106.8840332 259.87304688 C83.87869834 284.78718351 47.00504127 299.87621484 13.6887207 302.24023438 C-28.78322565 303.86187743 -68.43490941 292.38982205 -100.28540039 263.44628906 C-128.12776092 237.46542352 -148.00064362 202.19656597 -149.45239258 163.4765625 C-149.90816287 145.79728299 -150.32000715 128.3593059 -145.3112793 111.24023438 C-144.97225586 109.98984375 -144.63323242 108.73945313 -144.28393555 107.45117188 C-139.58072308 91.81843007 -132.11258205 76.30259904 -122.3112793 63.24023438 C-121.90828613 62.69351074 -121.50529297 62.14678711 -121.09008789 61.58349609 C-106.44722779 41.80820063 -88.36172841 26.29174702 -66.3112793 15.24023438 C-65.62517578 14.8912207 -64.93907227 14.54220703 -64.23217773 14.18261719 C-43.69812256 3.9013759 -22.77926947 0.05636689 0 0 Z " fill="#B2E49E" transform="translate(344.311279296875,194.759765625)"/>
<path d="M0 0 C0.75210251 -0.00974854 1.50420502 -0.01949707 2.27909851 -0.02954102 C18.91517265 -0.20075019 34.78654726 0.04531933 50.99609375 4.23828125 C51.73053711 4.41488281 52.46498047 4.59148438 53.22167969 4.7734375 C82.71417203 11.93116598 108.9557082 28.65839863 129.99609375 50.23828125 C130.60324219 50.78871094 131.21039063 51.33914062 131.8359375 51.90625 C159.23054463 77.51748307 175.86381489 118.62893082 177.11621094 155.80371094 C177.239657 163.61723984 177.16946174 171.42605303 176.99609375 179.23828125 C178.05799927 179.21471558 178.05799927 179.21471558 179.14135742 179.19067383 C209.06253134 178.61791571 237.15371216 182.14603092 263.99609375 196.23828125 C265.24531726 196.86223413 266.49533738 197.48459431 267.74609375 198.10546875 C284.06618492 206.34283103 297.11742376 217.35961126 309.99609375 230.23828125 C310.91261719 231.08519531 310.91261719 231.08519531 311.84765625 231.94921875 C337.54061209 256.05758701 354.55685717 296.12694917 356.1730957 331.06445312 C356.19925445 332.4452158 356.21940905 333.8261019 356.234375 335.20703125 C356.24920174 336.33060783 356.24920174 336.33060783 356.264328 337.47688293 C356.59020173 368.6246618 352.17131293 396.07305055 337.74609375 424.11328125 C337.23884766 425.10070312 336.73160156 426.088125 336.20898438 427.10546875 C332.1530095 434.64947486 332.1530095 434.64947486 327.99609375 436.23828125 C325.55859375 436.73828125 325.55859375 436.73828125 322.99609375 436.23828125 C318.9970336 432.67390155 318.9970336 432.67390155 317.99609375 430.23828125 C318.19907925 424.42169662 320.20277174 420.60156772 323.05859375 415.73828125 C341.8523738 381.89281198 344.81695999 340.50308861 334.58691406 303.52905273 C327.64123831 279.8418325 314.91044387 259.13401005 297.99609375 241.23828125 C297.26132812 240.4390625 296.5265625 239.63984375 295.76953125 238.81640625 C273.25287527 215.17015215 237.83817771 197.21839739 204.89770508 196.04736328 C201.10948514 195.96253754 197.32292293 195.95700897 193.53393555 195.97753906 C191.19748705 195.98821775 188.8618153 195.97760707 186.52539062 195.96484375 C173.4335818 195.95111271 160.63696384 197.02561505 147.99609375 200.67578125 C146.69393921 201.05114014 146.69393921 201.05114014 145.36547852 201.43408203 C130.01009229 206.1371393 114.80418653 213.50654357 101.99609375 223.23828125 C101.14402344 223.8828125 100.29195313 224.52734375 99.4140625 225.19140625 C68.04948882 249.66637312 47.08311279 283.07090717 40.44311523 322.52392578 C39.9701551 326.45380864 39.83436857 330.31817205 39.828125 334.26953125 C39.8247966 335.02310913 39.8214682 335.77668701 39.81803894 336.55310059 C39.81300158 338.14314164 39.81062962 339.73319316 39.81079102 341.32324219 C39.80862497 343.70396367 39.79049196 346.08420524 39.77148438 348.46484375 C39.61998551 389.05202386 56.42976153 425.43942757 84.62109375 454.23828125 C112.48993981 481.97167727 150.58240363 496.30320363 189.55859375 496.48828125 C232.41024469 496.28455924 269.55547954 478.78881902 299.99609375 449.23828125 C300.70121094 448.47128906 301.40632813 447.70429688 302.1328125 446.9140625 C303.99609375 445.23828125 303.99609375 445.23828125 307.55859375 444.92578125 C310.99609375 445.23828125 310.99609375 445.23828125 313.99609375 446.23828125 C315.72953633 448.57842874 315.9923027 450.07147489 316.05859375 452.98828125 C314.49941521 457.75753325 311.46479889 460.70119661 307.99609375 464.23828125 C307.49368164 464.76260742 306.99126953 465.28693359 306.47363281 465.82714844 C302.2571919 470.1585179 297.81063861 473.96381601 292.99609375 477.61328125 C292.25552734 478.17490967 291.51496094 478.73653809 290.75195312 479.31518555 C265.01823162 498.53581421 232.44884486 512.12711649 199.9921875 512.4765625 C199.24003967 512.48631104 198.48789185 512.49605957 197.71295166 512.50610352 C181.11580793 512.67690435 165.15000635 512.54365013 148.99609375 508.23828125 C148.27808594 508.05104492 147.56007813 507.86380859 146.8203125 507.67089844 C142.12848201 506.41089387 137.55400632 504.91655144 132.99609375 503.23828125 C131.97056396 502.86147217 131.97056396 502.86147217 130.92431641 502.47705078 C106.7102882 493.40165302 87.18273424 479.42492174 68.99609375 461.23828125 C68.38507813 460.67367188 67.7740625 460.1090625 67.14453125 459.52734375 C56.46296297 449.5045506 48.75431172 436.89830874 41.95556641 424.04296875 C41.10900361 422.45065522 40.23250232 420.87433646 39.3515625 419.30078125 C27.3739402 397.05211081 22.76072871 371.18802242 22.93359375 346.17578125 C22.93810547 344.92861328 22.94261719 343.68144531 22.94726562 342.39648438 C22.95896212 339.34369904 22.97535289 336.29101627 22.99609375 333.23828125 C22.28815674 333.2539917 21.58021973 333.26970215 20.85083008 333.28588867 C-23.75542364 334.13975202 -67.7821437 323.02096456 -100.953125 291.37890625 C-102.65423117 289.68133668 -104.33415777 287.9666174 -106.00390625 286.23828125 C-106.82890625 285.41328125 -107.65390625 284.58828125 -108.50390625 283.73828125 C-109.32890625 282.91328125 -110.15390625 282.08828125 -111.00390625 281.23828125 C-111.73480469 280.57699219 -111.73480469 280.57699219 -112.48046875 279.90234375 C-130.7409879 262.85342303 -143.49341158 237.27045632 -150.37890625 213.61328125 C-150.7186145 212.4538501 -150.7186145 212.4538501 -151.06518555 211.27099609 C-155.04552665 196.66294979 -156.56234344 182.08550378 -156.44140625 166.98828125 C-156.4386972 166.18700806 -156.43598816 165.38573486 -156.43319702 164.56018066 C-156.36623553 151.4396386 -155.31171521 138.98027666 -152.00390625 126.23828125 C-151.8219873 125.49320312 -151.64006836 124.748125 -151.45263672 123.98046875 C-146.1267375 102.42937699 -135.68433305 81.68231892 -122.00390625 64.23828125 C-121.24207031 63.26375 -121.24207031 63.26375 -120.46484375 62.26953125 C-117.78361775 58.9454382 -116.45166215 57.39564602 -112.12890625 56.92578125 C-109.00390625 57.23828125 -109.00390625 57.23828125 -106.62890625 58.73828125 C-104.40264956 62.16329154 -104.37484843 65.30387821 -105.00390625 69.23828125 C-106.875 72.30078125 -106.875 72.30078125 -109.44140625 75.23828125 C-115.35943525 82.36947979 -119.76596834 90.01912861 -124.00390625 98.23828125 C-124.3302002 98.87024414 -124.65649414 99.50220703 -124.99267578 100.15332031 C-132.3141596 114.55611626 -136.46230698 129.31893989 -139.00390625 145.23828125 C-139.19082031 146.27597656 -139.37773437 147.31367188 -139.5703125 148.3828125 C-140.20694595 154.04368835 -140.18827183 159.67116828 -140.19140625 165.36328125 C-140.20365234 166.51054687 -140.21589844 167.6578125 -140.22851562 168.83984375 C-140.24199468 176.81944626 -139.44802788 184.39491668 -138.00390625 192.23828125 C-137.76929688 193.51703125 -137.5346875 194.79578125 -137.29296875 196.11328125 C-128.83109218 235.93387689 -106.89838099 269.48784177 -73.00390625 292.23828125 C-71.98296875 292.94339844 -70.96203125 293.64851563 -69.91015625 294.375 C-55.21467444 304.01417557 -38.15597523 310.56046409 -21.00390625 314.23828125 C-20.16134277 314.41939453 -19.3187793 314.60050781 -18.45068359 314.78710938 C-9.25447484 316.54299414 -0.08299787 316.68039524 9.24609375 316.86328125 C10.87762267 316.9015633 12.50913359 316.94062051 14.140625 316.98046875 C18.09229771 317.07532734 22.04406422 317.15975142 25.99609375 317.23828125 C26.10421387 316.41875977 26.21233398 315.59923828 26.32373047 314.75488281 C27.33970234 307.56508803 28.74470569 300.84604922 31.12109375 293.98828125 C31.58068481 292.64503784 31.58068481 292.64503784 32.04956055 291.2746582 C41.33213656 264.83913911 56.68423678 242.45109987 76.99609375 223.23828125 C75.49719029 219.07882416 72.59507044 217.24393927 68.99609375 214.98828125 C68.38451416 214.6020459 67.77293457 214.21581055 67.14282227 213.81787109 C41.79689392 198.30460592 11.916555 194.08989379 -17.05371094 200.73779297 C-22.265706 202.07537307 -27.11811603 204.00807601 -32.00390625 206.23828125 C-33.1434375 206.74230469 -34.28296875 207.24632812 -35.45703125 207.765625 C-46.10443166 212.74926506 -54.92009299 219.27604001 -63.37890625 227.42578125 C-66.26856215 230.02219512 -66.68427372 230.22780149 -70.81640625 230.36328125 C-75.62890625 228.66475184 -75.62890625 228.66475184 -77.00390625 226.23828125 C-77.51952579 222.2606448 -77.61292158 220.10830315 -75.28125 216.77734375 C-56.57221493 195.91821374 -26.9067855 183.73764517 0.5534668 182.01513672 C15.43923519 181.53824711 29.74450362 181.64508946 43.99609375 186.23828125 C44.77629883 186.48497559 45.55650391 186.73166992 46.36035156 186.98583984 C62.9138772 192.34681266 76.50558941 200.30245713 89.99609375 211.23828125 C93.08491543 209.78561759 95.96386191 208.05973653 98.86694336 206.26879883 C116.60574217 195.3609471 139.5170983 182.23828125 160.99609375 182.23828125 C160.9802091 154.45091234 160.9802091 154.45091234 155.99609375 127.23828125 C155.7832373 126.47854004 155.57038086 125.71879883 155.35107422 124.93603516 C144.42419494 86.94228254 118.58717158 54.52987301 84.30859375 35.05078125 C52.53295211 17.69322205 14.5426522 10.57473719 -21.00390625 19.23828125 C-22.3524158 19.53330883 -23.70138632 19.8262363 -25.05078125 20.1171875 C-45.88865072 24.77439031 -65.5552935 34.40549985 -82.39794922 47.47900391 C-85.5502241 49.85747464 -87.34559358 51.15811203 -91.33984375 51.64453125 C-94.50987603 51.16112457 -95.85359372 50.62751739 -98.00390625 48.23828125 C-99.11857228 44.8199721 -99.40892358 43.08082567 -97.8359375 39.80859375 C-81.46613081 16.84199929 -41.0804266 5.69974247 -15.00390625 1.23828125 C-9.98707476 0.41916075 -5.0756568 0.05464767 0 0 Z " fill="#010101" transform="translate(156.00390625,-0.23828125)"/>
<path d="M0 0 C1.38150378 0.01006974 2.76301484 0.0191884 4.14453125 0.02734375 C7.47154732 0.0506096 10.79817285 0.08329436 14.125 0.125 C14.125 0.455 14.125 0.785 14.125 1.125 C12.58005859 1.11146484 12.58005859 1.11146484 11.00390625 1.09765625 C-0.58677897 1.24059841 -9.56478405 3.95296625 -19.875 9.125 C-20.54917969 9.46063965 -21.22335938 9.7962793 -21.91796875 10.14208984 C-59.0847006 29.02199884 -86.77688107 62.24569749 -100.5625 101.375 C-102.39154667 107.12774415 -103.84731233 112.91367577 -105.125 118.8125 C-105.28830811 119.55983398 -105.45161621 120.30716797 -105.61987305 121.07714844 C-113.84960194 161.43219623 -104.79738306 203.63378399 -82.875 238.125 C-63.80664771 265.95835475 -39.1511366 285.7675651 -8.10546875 298.71484375 C-4.875 300.125 -4.875 300.125 -1.875 302.125 C-39.82812673 303.67060245 -75.85715006 288.74061562 -103.87402344 263.31054688 C-126.47286159 242.20398354 -143.7823004 214.77312524 -149.875 184.125 C-150.06578125 183.2690625 -150.2565625 182.413125 -150.453125 181.53125 C-154.7500194 161.64276733 -154.5609103 139.89431256 -149.875 120.125 C-149.58100443 118.77235819 -149.28804942 117.41948982 -148.99609375 116.06640625 C-144.42437142 95.66234499 -135.28089852 75.48445571 -121.63427734 59.55102539 C-117.8063102 54.88085516 -117.34191732 52.14387538 -117.875 46.125 C-117.875 41.59979949 -117.44655636 40.99780895 -114.5 37.8125 C-113.87351563 37.09449219 -113.24703125 36.37648437 -112.6015625 35.63671875 C-109.40677446 33.86539644 -108.61996418 34.15839341 -105.13671875 34.75390625 C-99.87335584 35.49273435 -97.49025592 34.26128057 -93.30737305 31.1484375 C-92.56656494 30.56320313 -91.82575684 29.97796875 -91.0625 29.375 C-64.05452148 9.52599122 -33.51749777 -0.42760301 0 0 Z " fill="#D8377C" transform="translate(167.875,14.875)"/>
<path d="M0 0 C0.76570312 0.00451172 1.53140625 0.00902344 2.3203125 0.01367188 C4.17191037 0.02524436 6.02346688 0.04316845 7.875 0.0625 C4.69835187 2.18026542 1.76254567 3.29148137 -1.8125 4.625 C-14.63678159 9.60454099 -26.30591904 16.58178966 -37.125 25.0625 C-38.00285156 25.73667969 -38.88070312 26.41085938 -39.78515625 27.10546875 C-67.5571628 49.04335594 -87.70769706 80.30509008 -95.125 115.0625 C-95.42277344 116.33351563 -95.72054687 117.60453125 -96.02734375 118.9140625 C-98.37665141 130.12230005 -98.44406054 141.40960853 -98.5 152.8125 C-98.50785522 153.60110413 -98.51571045 154.38970825 -98.52380371 155.20220947 C-98.60661555 165.89744248 -97.64473888 175.65292905 -95.125 186.0625 C-94.95194336 186.83174805 -94.77888672 187.60099609 -94.60058594 188.39355469 C-88.77811363 213.79951171 -75.96321914 237.89708958 -58.1328125 256.87890625 C-56.125 259.0625 -56.125 259.0625 -54.08203125 261.640625 C-40.46004985 278.49816685 -18.53224862 289.48193613 0.875 298.0625 C1.71160156 298.45308594 2.54820312 298.84367187 3.41015625 299.24609375 C6.67773068 300.32838069 9.75643971 300.4951041 13.1875 300.6875 C14.44175781 300.76226562 15.69601562 300.83703125 16.98828125 300.9140625 C17.94089844 300.96304687 18.89351562 301.01203125 19.875 301.0625 C19.875 301.3925 19.875 301.7225 19.875 302.0625 C-25.27115937 302.76453358 -65.07105311 291.12983746 -98.19140625 259.39868164 C-126.81310412 231.26238496 -143.02814916 194.6960479 -143.41723633 154.48510742 C-143.50036975 139.59066088 -143.34213833 125.47603868 -139.125 111.0625 C-138.78597656 109.81210937 -138.44695312 108.56171875 -138.09765625 107.2734375 C-133.39444378 91.6406957 -125.92630275 76.12486466 -116.125 63.0625 C-115.72200684 62.51577637 -115.31901367 61.96905273 -114.90380859 61.40576172 C-100.26094849 41.63046626 -82.17544911 26.11401264 -60.125 15.0625 C-59.43889648 14.71348633 -58.75279297 14.36447266 -58.04589844 14.00488281 C-39.89163126 4.91518282 -20.33205348 -0.23432331 0 0 Z " fill="#94D4A3" transform="translate(338.125,194.9375)"/>
<path d="M0 0 C2.59765625 1.96875 2.59765625 1.96875 5.0625 4.5 C26.47894632 25.00822493 53.86435112 31.68402839 82.74609375 31.33984375 C106.96470103 30.57817282 130.59425421 19.4454754 148.01171875 2.84765625 C150 1 150 1 153 -1 C156.36187193 -0.81989972 158.99918142 -0.58112046 161.9375 1.125 C163.69937187 4.23418565 163.48159369 6.50844577 163 10 C161.38464338 12.04611839 159.97522702 13.35473082 158 15 C157.36449219 15.63421875 156.72898437 16.2684375 156.07421875 16.921875 C144.54550982 28.15191271 130.12969959 35.81698761 115 41 C113.87851562 41.38800781 112.75703125 41.77601563 111.6015625 42.17578125 C81.90844323 51.87365275 48.61220938 48.78627662 20.79248047 34.89794922 C8.85106574 28.65325905 -4.29544645 20.32364166 -12 9 C-12 5.19715329 -11.7968187 2.98069994 -9.375 0 C-5.90715561 -1.46014501 -3.63359108 -0.83584204 0 0 Z " fill="#020302" transform="translate(270,370)"/>
<path d="M0 0 C4.18780046 0.76918784 5.44527637 2.23237793 8.0625 5.5625 C8.56176958 8.5603783 8.76598428 10.97802932 8.7265625 13.96875 C8.73134613 14.77107056 8.73612976 15.57339111 8.74105835 16.40002441 C8.74445067 18.09108448 8.73529483 19.78221071 8.71435547 21.47314453 C8.68757567 24.05520444 8.71412096 26.63291834 8.74609375 29.21484375 C8.74278953 30.86198872 8.73638302 32.50913099 8.7265625 34.15625 C8.73668365 34.92408813 8.74680481 35.69192627 8.75723267 36.48303223 C8.66997142 40.49292326 8.21871646 42.36373216 5.71240234 45.55273438 C3.0625 47.5625 3.0625 47.5625 0 48.125 C-3.73133 47.41049 -4.68866238 46.61873445 -6.9375 43.5625 C-7.53101926 40.63602334 -7.49815986 37.75925469 -7.46875 34.78125 C-7.4725769 33.93075073 -7.47640381 33.08025146 -7.48034668 32.20397949 C-7.48306458 30.40859796 -7.47571182 28.61317676 -7.45898438 26.81787109 C-7.43757167 24.07169207 -7.45878871 21.32812903 -7.484375 18.58203125 C-7.4817317 16.83593173 -7.47660667 15.08983384 -7.46875 13.34375 C-7.47684692 12.52386597 -7.48494385 11.70398193 -7.49328613 10.85925293 C-7.43108608 7.07260095 -7.38164679 5.16610815 -5.08789062 2.04882812 C-2.9375 0.5625 -2.9375 0.5625 0 0 Z " fill="#060204" transform="translate(120.9375,105.4375)"/>
<path d="M0 0 C3.81865526 1.20216925 4.52502714 1.61477652 6.375 5.0625 C6.67977626 7.9071398 6.81939427 10.52714812 6.80859375 13.37109375 C6.8138356 14.17482925 6.81907745 14.97856476 6.82447815 15.80665588 C6.83089095 17.50366055 6.82957092 19.20070971 6.82104492 20.89770508 C6.81253956 23.4879512 6.84129608 26.07598754 6.87304688 28.66601562 C6.87465922 30.31770767 6.87408072 31.96940361 6.87109375 33.62109375 C6.88794472 34.77755653 6.88794472 34.77755653 6.90513611 35.9573822 C6.8575895 39.6445537 6.48988833 41.87304182 4.56274414 45.05102539 C2.375 47.0625 2.375 47.0625 -1.125 47.6875 C-4.625 47.0625 -4.625 47.0625 -6.80834961 45.04882812 C-9.12859875 41.2346516 -9.21941774 37.99271276 -9.19140625 33.65625 C-9.19760483 32.85392944 -9.20380341 32.05160889 -9.21018982 31.22497559 C-9.21727243 29.53394785 -9.21414116 27.84285016 -9.20141602 26.15185547 C-9.1875402 23.56998051 -9.22164948 20.9917259 -9.25976562 18.41015625 C-9.26071684 16.76301995 -9.25885789 15.11587913 -9.25390625 13.46875 C-9.26716446 12.70091187 -9.28042267 11.93307373 -9.29408264 11.14196777 C-9.22491774 7.14513118 -8.76803688 5.24937052 -6.31225586 2.04101562 C-3.625 0.0625 -3.625 0.0625 0 0 Z " fill="#020001" transform="translate(212.625,105.9375)"/>
<path d="M0 0 C4.13708851 0.66488922 5.06338007 1.2122704 7.5 4.5625 C7.90993091 7.53107521 8.08492644 10.1217805 8.06640625 13.08984375 C8.07570412 14.32874107 8.07570412 14.32874107 8.08518982 15.59266663 C8.09228289 17.3367495 8.08912283 19.08090016 8.07641602 20.82495117 C8.06256196 23.48809001 8.09660898 26.14770546 8.13476562 28.81054688 C8.135717 30.50781336 8.133857 32.20508422 8.12890625 33.90234375 C8.14216446 34.69519272 8.15542267 35.48804169 8.16908264 36.30491638 C8.09818767 40.53323633 7.83258966 42.13279983 5.15209961 45.59594727 C2.5 47.5625 2.5 47.5625 -0.5625 47.6875 C-4.29149046 46.25937599 -5.37770739 44.93755033 -7.5 41.5625 C-7.89069705 38.69935407 -8.06225837 36.23178093 -8.03125 33.375 C-8.0350769 32.59487549 -8.03890381 31.81475098 -8.04284668 31.01098633 C-8.04556005 29.36701156 -8.03823905 27.72299319 -8.02148438 26.07910156 C-8.00006386 23.56997977 -8.02130273 21.06372078 -8.046875 18.5546875 C-8.04423162 16.95311871 -8.03910642 15.3515517 -8.03125 13.75 C-8.03934692 13.00403564 -8.04744385 12.25807129 -8.05578613 11.48950195 C-7.99086777 7.86361442 -7.58752374 5.70608039 -5.68554688 2.5859375 C-3.5 0.5625 -3.5 0.5625 0 0 Z " fill="#040504" transform="translate(390.5,285.4375)"/>
<path d="M0 0 C2.18554688 1.49609375 2.18554688 1.49609375 4 4 C4.39772619 6.98069513 4.56147059 9.58404303 4.53125 12.5625 C4.5350769 13.39080322 4.53890381 14.21910645 4.54284668 15.07250977 C4.54556425 16.82081317 4.53821381 18.56915734 4.52148438 20.31738281 C4.50007082 22.99115777 4.52128944 25.66224596 4.546875 28.3359375 C4.54423169 30.03646425 4.53910665 31.73698934 4.53125 33.4375 C4.53934692 34.23551025 4.54744385 35.03352051 4.55578613 35.85571289 C4.4956595 39.42066519 4.30103868 41.58237784 2.18945312 44.51171875 C-0.96507496 46.65600992 -3.27508596 46.40635426 -7 46 C-10 44 -10 44 -11 41 C-11.13283689 38.24303896 -11.21220305 35.51213388 -11.23828125 32.75390625 C-11.246353 31.94638412 -11.25442474 31.138862 -11.26274109 30.30686951 C-11.27656151 28.59970231 -11.28729279 26.89250772 -11.29516602 25.18530273 C-11.31241422 22.57547911 -11.35632056 19.96691125 -11.40039062 17.35742188 C-11.41051506 15.69792597 -11.41903194 14.03841932 -11.42578125 12.37890625 C-11.44328934 11.59963272 -11.46079742 10.82035919 -11.47883606 10.01747131 C-11.46468191 6.48188274 -11.29545329 4.40733054 -9.19213867 1.50756836 C-5.97800505 -0.70284205 -3.80613689 -0.54373384 0 0 Z " fill="#010201" transform="translate(304,286)"/>
</svg>
